<svg width="76" height="77" viewBox="0 0 76 77" fill="none" xmlns="http://www.w3.org/2000/svg">
<g clip-path="url(#clip0_8_77)">
<path d="M1.62182 38.0391C1.62004 44.5086 3.30154 50.8256 6.49888 56.3935L1.31604 75.4172L20.6818 70.3126C26.0381 73.2439 32.0395 74.7799 38.138 74.7803H38.1541C58.2866 74.7803 74.675 58.311 74.6836 38.0681C74.6875 28.2589 70.8911 19.035 63.9935 12.0955C57.0971 5.15653 47.9251 1.33309 38.1526 1.32861C18.0176 1.32861 1.63043 17.7971 1.62212 38.0391" fill="url(#paint0_linear_8_77)"/>
<path d="M0.317656 38.0273C0.315578 44.7295 2.05734 51.2724 5.36869 57.0397L0 76.7454L20.0601 71.4578C25.5874 74.4873 31.8105 76.0847 38.1428 76.087H38.1591C59.014 76.087 75.9911 59.0253 76 38.0577C76.0036 27.8961 72.0706 18.3406 64.9266 11.1525C57.7817 3.9652 48.2817 0.00417829 38.1591 0C17.3007 0 0.325969 17.0594 0.317656 38.0273ZM12.2642 56.0465L11.5152 54.8512C8.36653 49.8181 6.70462 44.0019 6.707 38.0296C6.71353 20.6017 20.8222 6.42264 38.171 6.42264C46.5726 6.42622 54.4682 9.71871 60.4069 15.6925C66.3453 21.6668 69.613 29.6086 69.611 38.0553C69.6032 55.4833 55.4942 69.6641 38.1591 69.6641H38.1467C32.5022 69.6611 26.9663 68.1372 22.1386 65.2575L20.9897 64.5726L9.08556 67.7102L12.2642 56.0465Z" fill="url(#paint1_linear_8_77)"/>
<path d="M28.7013 22.1293C27.993 20.5467 27.2475 20.5147 26.5739 20.487C26.0223 20.4631 25.3917 20.4649 24.7618 20.4649C24.1312 20.4649 23.1067 20.7033 22.2407 21.6539C21.3738 22.6054 18.9312 24.9046 18.9312 29.581C18.9312 34.2574 22.3194 38.7771 22.7917 39.4119C23.2646 40.0456 29.3328 49.9493 38.9432 53.7593C46.9303 56.9256 48.5557 56.2958 50.2892 56.1371C52.0229 55.9789 55.8835 53.8384 56.6711 51.6188C57.4593 49.3996 57.4593 47.4972 57.223 47.0997C56.9867 46.7037 56.3561 46.4658 55.4106 45.9907C54.465 45.5155 49.8162 43.2157 48.9497 42.8984C48.0828 42.5815 47.4525 42.4233 46.822 43.3751C46.1914 44.3253 44.3808 46.4658 43.8289 47.0997C43.2776 47.7351 42.7257 47.8142 41.7804 47.3388C40.8343 46.8618 37.7892 45.8594 34.1766 42.6215C31.3658 40.102 29.4681 36.9906 28.9165 36.0389C28.3649 35.0886 28.8575 34.5735 29.3316 34.0998C29.7564 33.674 30.2774 32.9899 30.7506 32.4351C31.2221 31.88 31.3794 31.4839 31.6947 30.85C32.0103 30.2155 31.8523 29.6604 31.6163 29.185C31.3794 28.7095 29.5421 24.0087 28.7013 22.1293Z" fill="white"/>
</g>
<defs>
<linearGradient id="paint0_linear_8_77" x1="3669.7" y1="7410.19" x2="3669.7" y2="1.32861" gradientUnits="userSpaceOnUse">
<stop stop-color="#1FAF38"/>
<stop offset="1" stop-color="#60D669"/>
</linearGradient>
<linearGradient id="paint1_linear_8_77" x1="3800" y1="7674.54" x2="3800" y2="0" gradientUnits="userSpaceOnUse">
<stop stop-color="#F9F9F9"/>
<stop offset="1" stop-color="white"/>
</linearGradient>
<clipPath id="clip0_8_77">
<rect width="76" height="77" fill="white"/>
</clipPath>
</defs>
</svg>
